# xmcd
#
# Track frame offsets: 
#        150
#        18427
#        42042
#        64197
#        78292
#        84722
#        115712
#
# Disc length: 1731 seconds
#
# Revision: 2
# Processed by: cddbd v1.5.2PL0 Copyright (c) Steve Scherf et al.
# Submitted via: ExactAudioCopy v0.90b4
#
DISCID=4b06c107
DTITLE=Dream City - Do The Blues
DYEAR=1993
DGENRE=Progressive Rock
TTITLE0=Hey Princess
TTITLE1=The Sky Is Crying
TTITLE2=Whats Up?
TTITLE3=Leave Me Crying
TTITLE4=Air
TTITLE5=Dream City
TTITLE6=Late Night Rider
EXTD=
EXTT0=
EXTT1=
EXTT2=
EXTT3=
EXTT4=
EXTT5=
EXTT6=
PLAYORDER=
